<?xml version="1.0" standalone="no"?>
<!DOCTYPE svg PUBLIC "-//W3C//DTD SVG 1.1//EN" "http://www.w3.org/Graphics/SVG/1.1/DTD/svg11.dtd" >
<svg xmlns="http://www.w3.org/2000/svg">
<metadata></metadata>
<defs>
<font id="f.c._barcelonaregular" horiz-adv-x="891" >
<font-face units-per-em="2048" ascent="1638" descent="-410" />
<missing-glyph horiz-adv-x="508" />
<glyph horiz-adv-x="0" />
<glyph unicode="&#xd;" horiz-adv-x="508" />
<glyph unicode=" "  horiz-adv-x="508" />
<glyph unicode="&#x09;" horiz-adv-x="508" />
<glyph unicode="&#xa0;" horiz-adv-x="508" />
<glyph unicode="'" horiz-adv-x="346" d="M101 1500q0 37 20.5 57t59.5 20t60.5 -19.5t21.5 -56.5q0 -8 -4 -34l-62 -359h-30l-62 359q-4 23 -4 33z" />
<glyph unicode="+" horiz-adv-x="1014" d="M87 647v140h350v369l1 1h139v-370h349l1 -1v-139h-350v-370h-140v370h-350z" />
<glyph unicode="," horiz-adv-x="557" d="M119 91v42l119 125q44 0 88.5 -65.5t44.5 -151.5q0 -109 -71 -226.5t-139 -117.5v43q73 43 87 190q0 119 -129 161z" />
<glyph unicode="-" horiz-adv-x="670" d="M116 437v83q0 29 41 29h356q41 0 41 -29v-83q0 -28 -40 -28h-358q-40 0 -40 28z" />
<glyph unicode="." horiz-adv-x="557" d="M129 136q0 15 16 31l82 84q15 14 29 14q13 0 31 -16l80 -86q12 -16 12 -29q0 -15 -14 -31l-80 -88q-20 -20 -29 -20q-16 0 -29 14l-88 101q-10 13 -10 26z" />
<glyph unicode="/" horiz-adv-x="1108" d="M0 6l320 707l180 405h5q107 260 146 314h337l12 -11l-321 -708l-174 -404h-11q-120 -284 -146 -309h-337l-5 6h-6z" />
<glyph unicode="0" d="M0 359v725q0 237 196 319q86 32 172 32h50q247 0 342 -205q23 -75 23 -131v-754q0 -225 -190 -310q-87 -35 -193 -35h-11q-266 0 -357 187q-32 71 -32 172zM283 383q0 -115 44 -135q26 -14 53 -14h23q97 0 97 134v722q0 82 -67 108l-41 6q-109 0 -109 -131v-690z" />
<glyph unicode="1" horiz-adv-x="559" d="M0 1106v15q0 225 181 304q47 12 77 12h187l6 -6v-1422l-6 -6h-255l-11 -3q-12 4 -12 9v1086l-6 5h-155z" />
<glyph unicode="2" horiz-adv-x="875" d="M0 1057v21q0 170 55 218q115 139 331 139q223 0 340 -157q41 -55 41 -168v-320q0 -196 -157 -261q-36 -12 -61 -12h-113q-163 0 -163 -44l-3 -26v-200l6 -6h485l6 -6v-229l-6 -6h-735l-6 6v465q0 227 239 284l46 3h73q110 0 110 58l3 21v261q0 110 -93 110h-17 q-66 0 -88 -40q-17 -34 -17 -64v-47l-6 -5h-264z" />
<glyph unicode="3" d="M0 368v61l6 6h274l6 -6v-96q0 -82 85 -99h26q67 0 91 49q12 28 12 50v190q0 99 -73 99q-123 35 -123 79q-5 0 -6 21v20q0 88 149 111l9 3q44 15 44 94v134q0 120 -111 120q-103 -11 -103 -103v-96l-6 -6h-274l-6 6v50q0 241 143 318q92 62 234 62h29q269 0 357 -211 q20 -64 20 -125v-173q0 -122 -143 -187v-3q143 -72 143 -184v-222q0 -192 -172 -286q-94 -44 -202 -44h-35q-255 0 -348 199q-26 66 -26 169z" />
<glyph unicode="4" horiz-adv-x="952" d="M0 485q0 283 175 631l152 315l18 3h408l6 -6v-972h85v-237l-6 -6h-79v-207l-6 -6h-254l-5 6v207h-176q-264 0 -312 219zM263 552q13 -96 76 -96h155v744h-6q-216 -429 -225 -648z" />
<glyph unicode="5" horiz-adv-x="878" d="M0 343v41l6 5h255l5 -5v-41q0 -74 59 -97q12 -10 67 -15q100 0 100 106v313q0 50 -47 67l-35 6h-392l-6 6v697l6 6h737l6 -6v-214l-6 -6h-483v-246l6 -6h229q133 0 219 -99q44 -58 44 -132v-375q0 -242 -220 -325q-73 -23 -152 -23h-29q-234 0 -331 164q-38 77 -38 179z " />
<glyph unicode="6" d="M0 342v757q0 236 228 315q72 21 155 21h20q261 0 351 -196q29 -68 29 -158v-82l-6 -6h-272l-5 6v62q0 109 -50 128q-12 9 -58 15q-109 0 -109 -129v-210l97 6h38q251 0 339 -196q26 -71 26 -164v-155q0 -246 -199 -324q-78 -32 -195 -32h-18q-224 0 -327 164 q-44 80 -44 178zM283 356q0 -101 71 -119l14 -3h29q64 0 91 52q12 35 12 88v123q0 108 -50 128q-12 9 -58 15q-109 0 -109 -123v-161z" />
<glyph unicode="7" d="M0 1046v383l6 6h403q266 0 330 -109q44 -62 44 -146v-46q0 -312 -298 -880l-137 -254h-304v3q416 728 453 1066l-3 15l3 3q0 111 -120 111h-111v-152l-6 -6h-254z" />
<glyph unicode="8" d="M0 394v85q0 200 96 275q-96 64 -96 240v64q0 260 175 333q83 44 202 44h41q259 -12 333 -190q32 -59 32 -146v-143q0 -123 -90 -202q90 -84 90 -228v-196q0 -227 -222 -307q-75 -23 -149 -23h-41q-243 0 -339 190q-32 61 -32 204zM286 336q0 -76 68 -99l14 -3h32 q100 0 100 117v163q0 65 -44 94q-23 14 -53 14h-20q-78 0 -97 -87v-199zM286 950q0 -69 56 -94l47 -9h5q68 0 94 53q12 31 12 58v138q0 69 -53 96q-22 9 -53 12q-108 0 -108 -114v-140z" />
<glyph unicode="9" d="M0 359v76l6 6h272l5 -6v-52q0 -125 56 -141q22 -8 41 -8h23q63 0 88 61q9 19 9 88v187l-108 -6h-12q-263 0 -348 184q-32 68 -32 178v152q0 234 181 319q93 38 199 38h23q262 0 354 -199q26 -69 26 -149v-742q0 -251 -231 -325q-69 -20 -158 -20h-17q-260 0 -354 205 q-23 71 -23 154zM283 938q0 -102 41 -123q26 -17 56 -17h23q97 0 97 137v155q0 95 -85 111l-23 3q-79 0 -103 -73l-6 -82v-111z" />
<glyph unicode=":" horiz-adv-x="557" d="M129 136q0 15 16 31l82 84q15 14 29 14q13 0 31 -16l80 -86q12 -16 12 -29q0 -15 -14 -31l-80 -88q-20 -20 -29 -20q-16 0 -29 14l-88 101q-10 13 -10 26zM129 829q0 15 16 31l82 84q15 14 29 14q13 0 31 -16l80 -86q12 -16 12 -29q0 -15 -14 -31l-80 -88 q-20 -20 -29 -20q-16 0 -29 14l-88 101q-10 13 -10 26z" />
<glyph unicode=";" horiz-adv-x="557" d="M119 91v42l119 125q44 0 88.5 -65.5t44.5 -151.5q0 -109 -71 -226.5t-139 -117.5v43q73 43 87 190q0 119 -129 161zM129 828q0 15 16 31l82 84q15 14 29 14q13 0 31 -16l80 -86q12 -16 12 -29q0 -15 -14 -31l-80 -88q-20 -20 -29 -20q-16 0 -29 14l-88 101q-10 13 -10 26 z" />
<glyph unicode="&#x3c;" horiz-adv-x="1014" d="M87 674v83l840 484v-167l-625 -359l625 -355v-167z" />
<glyph unicode="=" horiz-adv-x="1014" d="M87 491v140h840v-140h-840zM87 803v140h840v-140h-840z" />
<glyph unicode="&#x3e;" horiz-adv-x="1014" d="M87 193v167l625 355l-625 359v167l840 -484v-83z" />
<glyph unicode="?" horiz-adv-x="875" d="M0 1057v21q0 170 55 218q115 139 331 139q223 0 340 -157q41 -55 41 -168v-320q0 -196 -157 -261q-36 -12 -61 -12h-113q-163 0 -163 -44l-3 -26v-326l-244 -1l-6 6v345q0 227 239 284l46 3h73q110 0 110 58l3 21v261q0 110 -93 110h-17q-66 0 -88 -40q-17 -34 -17 -64 v-47l-6 -5h-264z" />
<glyph unicode="@" horiz-adv-x="2019" d="M100 508q0 242 124 464.5t345.5 342t456.5 119.5q362 0 609 -230t247 -566q0 -270 -176 -439q-175 -168 -346 -170q-63 1 -100.5 18t-61.5 54q-29 -37 -82 -64.5t-133 -27.5q-144 0 -256.5 100.5t-112.5 233.5q1 87 53 166.5t132.5 115t173.5 49.5q67 16 110 42.5 t43 74.5q-2 69 -41 125t-129 56q-72 0 -121.5 -59t-50.5 -125h-45v159q0 20 72 40q73 20 178 20q109 -2 193.5 -64.5t84.5 -157.5v-589q0 -117 94 -117q185 35 267 191.5t82 382.5q-20 335 -232 540q-197 188 -480 188q-205 0 -392.5 -137.5t-269.5 -355.5 q-67 -178 -67 -361q0 -313 129.5 -511.5t305 -290.5t318.5 -92q274 0 575 208v-75q-263 -184 -571 -184q-240 0 -461 122.5t-343 342t-122 461.5zM753 343q0 -107 64 -194t183 -87q97 5 126 167v476q-54 -63 -154 -83q-83 -10 -151 -80t-68 -199z" />
<glyph unicode="A" horiz-adv-x="926" d="M0 11v1042q0 278 297 370l112 11q292 0 392 -263q17 -71 17 -124v-1036l-11 -11h-286l-11 11v465h-208v-465l-11 -11h-280zM302 790h208v218q0 78 -101 90q-107 0 -107 -123v-185z" />
<glyph unicode="B" horiz-adv-x="940" d="M0 11v1412l11 11h405q265 0 388 -270q28 -69 28 -146q0 -158 -123 -287q123 -115 123 -298q0 -250 -247 -399q-90 -34 -180 -34h-394zM332 321h45q135 11 135 129q-27 112 -113 112h-67v-241zM332 877h56q124 23 124 124q-27 118 -101 118h-79v-242z" />
<glyph unicode="C" horiz-adv-x="962" d="M0 389q12 771 38 771q122 274 378 274h16q282 0 389 -307q16 -63 16 -229l-5 -6h-274q-16 0 -16 115v17q-31 103 -115 103q-100 0 -120 -125l-11 -548q0 -97 125 -131q114 0 132 137v93l11 11h273q17 -6 17 -33v-88q0 -326 -334 -432l-104 -11q-237 0 -378 246 q-38 98 -38 143z" />
<glyph unicode="D" horiz-adv-x="923" d="M0 11v1412l11 11h388q289 0 394 -287q22 -54 22 -208v-495q0 -281 -230 -399q-34 -45 -461 -45h-113zM315 315h73q112 0 112 112v580q0 112 -84 112h-101v-804z" />
<glyph unicode="E" horiz-adv-x="842" d="M0 390v615q0 343 345 424l102 5h276l11 -11v-294l-11 -11h-322q-85 -11 -85 -84v-119l-5 -39l5 -7h418v-316h-423v-129q0 -113 118 -113h294l11 -11v-289l-11 -11h-317q-283 0 -383 282q-23 67 -23 108z" />
<glyph unicode="F" horiz-adv-x="844" d="M0 11v989q0 309 287 416q77 17 140 17h292l12 -11v-292l-12 -12h-320q-70 0 -84 -84v-152l-6 -5v-6h416l11 -11v-276l-5 -28h-416v-545l-12 -11h-292z" />
<glyph unicode="G" horiz-adv-x="966" d="M0 394q0 742 55 805q134 236 345 236h49q216 0 356 -246q33 -77 33 -296l-5 -6h-274q-15 0 -22 165q-40 76 -121 76q-104 -28 -104 -104l-16 -569q26 -132 131 -132q112 0 132 115v28q0 104 -143 120h-60l-5 6h-6l6 175v82l16 16h99q157 0 279 -120q115 -126 115 -301v-6 q0 -272 -258 -400q-78 -38 -186 -38q-239 0 -383 252q-33 96 -33 142z" />
<glyph unicode="H" horiz-adv-x="1002" d="M0 11v1412l11 11h293l11 -11v-675h253l11 11v664l11 11h299l5 -28v-1395l-11 -11h-293l-11 11v428h-264v-428l-11 -11h-293z" />
<glyph unicode="I" horiz-adv-x="423" d="M0 11v1412l11 11h293l11 -11v-675v-309v-428l-11 -11h-293z" />
<glyph unicode="J" horiz-adv-x="807" d="M0 11v288l11 11h260q112 0 112 124v987l12 11h293l11 -11v-857q0 -306 -79 -395q-130 -169 -316 -169h-293z" />
<glyph unicode="K" horiz-adv-x="947" d="M0 11v1414l11 11h293l11 -11v-552h79q124 0 124 141v411l11 11h299l11 -11v-361q0 -279 -107 -349q71 -63 96 -152q11 -90 11 -248v-304l-11 -11h-299l-11 11v400q0 108 -67 141l-85 6h-45l-6 -6h-5l5 -6v-535l-11 -11h-293z" />
<glyph unicode="L" horiz-adv-x="771" d="M0 11v1410l11 11h292l11 -11v-1107l6 6h331l12 -11v-298l-12 -11h-640z" />
<glyph unicode="M" horiz-adv-x="1413" d="M0 11v1412l11 11h355q108 0 208 -34v6q0 28 11 28h309q271 0 383 -264q28 -75 28 -152v-1007l-12 -11h-292l-11 11v1018q0 90 -85 90h-95v-1108l-11 -11h-293l-11 11v1012q0 96 -84 96h-96v-1108l-11 -11h-293z" />
<glyph unicode="N" horiz-adv-x="922" d="M0 11v1410l11 11h326q362 0 449 -270q28 -77 28 -168v-983l-11 -11h-292l-11 11v983q0 124 -90 124h-90v-1084q0 -29 -17 -34h-292z" />
<glyph unicode="O" horiz-adv-x="961" d="M0 394l5 327l6 22l-6 6l6 22q0 409 60 448q122 213 355 213q244 0 372 -240q44 -73 44 -372l11 -432q0 -111 -121 -262q-145 -126 -289 -126h-17q-283 0 -404 290q-11 15 -22 104zM295 454q27 -132 131 -132h6q120 29 120 121q0 628 -27 628q-40 47 -99 55 q-85 0 -120 -109v-6z" />
<glyph unicode="P" horiz-adv-x="956" d="M0 11v1410l11 11h405q280 0 410 -286q22 -64 22 -135v-45q0 -225 -253 -371q-92 -39 -179 -39h-102v-545l-11 -11h-292zM314 870h90q76 0 101 113v33q-33 102 -101 102h-78l-6 5h-6v-253z" />
<glyph unicode="Q" horiz-adv-x="1010" d="M0 399q10 798 60 798q122 235 366 235h17q236 0 366 -262q34 0 44 -782l-17 -98h55l11 -11v-268l-11 -11h-191q-77 0 -126 27q-84 -27 -137 -27h-27q-145 0 -279 120q-131 141 -131 279zM301 437l16 -49h5q0 78 203 109l27 -11l5 6l-5 60l-5 437q-19 131 -99 131h-33 q-109 0 -109 -202z" />
<glyph unicode="R" horiz-adv-x="953" d="M0 17v1404l11 11h397q312 0 425 -330l12 -95q0 -168 -129 -302q123 -100 123 -235v-459l-11 -11l-285 6h-12v408q0 145 -156 145h-62v-537l-17 -16h-285zM308 884l11 -11h73q95 0 111 128q-24 118 -111 118h-84v-235z" />
<glyph unicode="S" horiz-adv-x="892" d="M0 975v12q0 324 293 428q70 17 152 17h254l11 -11v-293l-11 -12h-304q-69 0 -79 -112q0 -125 96 -125q248 -86 293 -152q79 -105 79 -276q0 -347 -316 -445l-85 -6h-360l-12 11v288l12 11h349q102 0 102 124q0 123 -192 152q-160 47 -220 147q-62 104 -62 242z" />
<glyph unicode="T" horiz-adv-x="1039" d="M0 1133v286l17 17h903l11 -11v-292l-11 -11h-297v-1111l-6 -5v-6l-179 6h-113l-11 11v1105h-303z" />
<glyph unicode="U" horiz-adv-x="915" d="M0 337v1084l11 11h277l11 -11v-995q0 -88 105 -100q89 0 99 105v990l11 11h282l11 -11v-968q0 -320 -193 -403q-82 -50 -194 -50h-16q-291 0 -387 243z" />
<glyph unicode="V" horiz-adv-x="922" d="M0 11v1410l11 11h292q17 -5 17 -34v-1084h90q90 0 90 124v983l11 11h292l11 -11v-983q0 -91 -28 -168q-88 -270 -449 -270h-326z" />
<glyph unicode="W" horiz-adv-x="1413" d="M0 8v1412l12 11h292l11 -11v-1108h96q84 0 84 96v1012l11 11h293l11 -11v-1108h96q84 0 84 90v1018l11 11h293l11 -11v-1007q0 -77 -28 -152q-111 -264 -383 -264h-309q-11 0 -11 28v6q-100 -34 -208 -34h-354z" />
<glyph unicode="X" horiz-adv-x="1108" d="M0 6l320 707l-309 691l-5 28h342q36 -56 152 -314h5q107 260 146 314h337l12 -11l-321 -708l321 -707l-6 -6h-343q-30 32 -146 309h-11q-120 -284 -146 -309h-337l-5 6h-6z" />
<glyph unicode="Y" horiz-adv-x="990" d="M0 994v427l11 11h259l11 -11v-382q0 -133 129 -180l34 -5q157 40 157 157v410l11 11h258l12 -11v-433q0 -268 -287 -387v-590l-11 -11h-292l-11 11v595q-281 118 -281 388z" />
<glyph unicode="Z" horiz-adv-x="969" d="M0 11v297l481 800v11h-470l-11 11v291l11 11h839l11 -11v-291q-26 -62 -335 -576q-126 -200 -134 -235h458l11 -11v-297l-11 -11h-162l-682 6z" />
<glyph unicode="[" horiz-adv-x="758" />
<glyph unicode="\" horiz-adv-x="1108" d="M6 1432h342q36 -56 152 -314h5l174 -405l321 -707l-6 -6h-343q-30 32 -146 309h-11l-174 404l-309 691z" />
<glyph unicode="]" horiz-adv-x="758" />
<glyph unicode="^" horiz-adv-x="1014" />
<glyph unicode="_" horiz-adv-x="1024" d="M0 -100h1024v-60h-1024v60z" />
<glyph unicode="`" horiz-adv-x="1024" d="M234 1684v4h224q11 -9 30 -36l16 -11l48 -59l90 -104l-2 -1h-224q-11 5 -42 45h-5l-48 60z" />
<glyph unicode="a" horiz-adv-x="926" d="M0 11v1042q0 278 297 370l112 11q292 0 392 -263q17 -71 17 -124v-1036l-11 -11h-286l-11 11v465h-208v-465l-11 -11h-280zM302 790h208v218q0 78 -101 90q-107 0 -107 -123v-185z" />
<glyph unicode="b" horiz-adv-x="940" d="M0 11v1412l11 11h405q265 0 388 -270q28 -69 28 -146q0 -158 -123 -287q123 -115 123 -298q0 -250 -247 -399q-90 -34 -180 -34h-394zM332 321h45q135 11 135 129q-27 112 -113 112h-67v-241zM332 877h56q124 23 124 124q-27 118 -101 118h-79v-242z" />
<glyph unicode="c" horiz-adv-x="962" d="M0 389q12 771 38 771q122 274 378 274h16q282 0 389 -307q16 -63 16 -229l-5 -6h-274q-16 0 -16 115v17q-31 103 -115 103q-100 0 -120 -125l-11 -548q0 -97 125 -131q114 0 132 137v93l11 11h273q17 -6 17 -33v-88q0 -326 -334 -432l-104 -11q-237 0 -378 246 q-38 98 -38 143z" />
<glyph unicode="d" horiz-adv-x="923" d="M0 11v1412l11 11h388q289 0 394 -287q22 -54 22 -208v-495q0 -281 -230 -399q-34 -45 -461 -45h-113zM315 315h73q112 0 112 112v580q0 112 -84 112h-101v-804z" />
<glyph unicode="e" horiz-adv-x="842" d="M0 390v615q0 343 345 424l102 5h276l11 -11v-294l-11 -11h-322q-85 -11 -85 -84v-119l-5 -39l5 -7h418v-316h-423v-129q0 -113 118 -113h294l11 -11v-289l-11 -11h-317q-283 0 -383 282q-23 67 -23 108z" />
<glyph unicode="f" horiz-adv-x="844" d="M0 11v989q0 309 287 416q77 17 140 17h292l12 -11v-292l-12 -12h-320q-70 0 -84 -84v-152l-6 -5v-6h416l11 -11v-276l-5 -28h-416v-545l-12 -11h-292z" />
<glyph unicode="g" horiz-adv-x="968" d="M0 394q0 742 55 805q134 236 345 236h49q216 0 356 -246q33 -77 33 -296l-5 -6h-274q-15 0 -22 165q-40 76 -121 76q-104 -28 -104 -104l-16 -569q26 -132 131 -132q112 0 132 115v28q0 104 -143 120h-60l-5 6h-6l6 175v82l16 16h99q157 0 279 -120q115 -126 115 -301v-6 q0 -272 -258 -400q-78 -38 -186 -38q-239 0 -383 252q-33 96 -33 142z" />
<glyph unicode="h" horiz-adv-x="1002" d="M0 11v1412l11 11h293l11 -11v-675h253l11 11v664l11 11h299l5 -28v-1395l-11 -11h-293l-11 11v428h-264v-428l-11 -11h-293z" />
<glyph unicode="i" horiz-adv-x="423" d="M0 11v1412l11 11h293l11 -11v-675v-309v-428l-11 -11h-293z" />
<glyph unicode="j" horiz-adv-x="807" d="M0 11v288l11 11h260q112 0 112 124v987l12 11h293l11 -11v-857q0 -306 -79 -395q-130 -169 -316 -169h-293z" />
<glyph unicode="k" horiz-adv-x="947" d="M0 11v1414l11 11h293l11 -11v-552h79q124 0 124 141v411l11 11h299l11 -11v-361q0 -279 -107 -349q71 -63 96 -152q11 -90 11 -248v-304l-11 -11h-299l-11 11v400q0 108 -67 141l-85 6h-45l-6 -6h-5l5 -6v-535l-11 -11h-293z" />
<glyph unicode="l" horiz-adv-x="771" d="M0 11v1410l11 11h292l11 -11v-1107l6 6h331l12 -11v-298l-12 -11h-640z" />
<glyph unicode="m" horiz-adv-x="1413" d="M0 11v1412l11 11h355q108 0 208 -34v6q0 28 11 28h309q271 0 383 -264q28 -75 28 -152v-1007l-12 -11h-292l-11 11v1018q0 90 -85 90h-95v-1108l-11 -11h-293l-11 11v1012q0 96 -84 96h-96v-1108l-11 -11h-293z" />
<glyph unicode="n" horiz-adv-x="922" d="M0 11v1410l11 11h326q362 0 449 -270q28 -77 28 -168v-983l-11 -11h-292l-11 11v983q0 124 -90 124h-90v-1084q0 -29 -17 -34h-292z" />
<glyph unicode="o" horiz-adv-x="961" d="M0 394l5 327l6 22l-6 6l6 22q0 409 60 448q122 213 355 213q244 0 372 -240q44 -73 44 -372l11 -432q0 -111 -121 -262q-145 -126 -289 -126h-17q-283 0 -404 290q-11 15 -22 104zM295 454q27 -132 131 -132h6q120 29 120 121q0 628 -27 628q-40 47 -99 55 q-85 0 -120 -109v-6z" />
<glyph unicode="p" horiz-adv-x="956" d="M0 11v1410l11 11h405q280 0 410 -286q22 -64 22 -135v-45q0 -225 -253 -371q-92 -39 -179 -39h-102v-545l-11 -11h-292zM314 870h90q76 0 101 113v33q-33 102 -101 102h-78l-6 5h-6v-253z" />
<glyph unicode="q" horiz-adv-x="1010" d="M0 399q10 798 60 798q122 235 366 235h17q236 0 366 -262q34 0 44 -782l-17 -98h55l11 -11v-268l-11 -11h-191q-77 0 -126 27q-84 -27 -137 -27h-27q-145 0 -279 120q-131 141 -131 279zM301 437l16 -49h5q0 78 203 109l27 -11l5 6l-5 60l-5 437q-19 131 -99 131h-33 q-109 0 -109 -202z" />
<glyph unicode="r" horiz-adv-x="953" d="M0 17v1404l11 11h397q312 0 425 -330l12 -95q0 -168 -129 -302q123 -100 123 -235v-459l-11 -11l-285 6h-12v408q0 145 -156 145h-62v-537l-17 -16h-285zM308 884l11 -11h73q95 0 111 128q-24 118 -111 118h-84v-235z" />
<glyph unicode="s" horiz-adv-x="892" d="M0 975v12q0 324 293 428q70 17 152 17h254l11 -11v-293l-11 -12h-304q-69 0 -79 -112q0 -125 96 -125q248 -86 293 -152q79 -105 79 -276q0 -347 -316 -445l-85 -6h-360l-12 11v288l12 11h349q102 0 102 124q0 123 -192 152q-160 47 -220 147q-62 104 -62 242z" />
<glyph unicode="t" horiz-adv-x="1039" d="M0 1133v286l17 17h903l11 -11v-292l-11 -11h-297v-1111l-6 -5v-6l-179 6h-113l-11 11v1105h-303z" />
<glyph unicode="u" horiz-adv-x="915" d="M0 337v1084l11 11h277l11 -11v-995q0 -88 105 -100q89 0 99 105v990l11 11h282l11 -11v-968q0 -320 -193 -403q-82 -50 -194 -50h-16q-291 0 -387 243z" />
<glyph unicode="v" horiz-adv-x="922" d="M0 438v983l11 11h292l11 -11v-983q0 -124 90 -124h90v1084q0 29 17 34h292l11 -11v-1410l-11 -11h-326q-361 0 -449 270q-28 77 -28 168z" />
<glyph unicode="w" horiz-adv-x="1413" d="M0 416v1007l11 11h293l11 -11v-1018q0 -90 84 -90h96v1108l11 11h293l11 -11v-1012q0 -96 84 -96h96v1108l11 11h292l12 -11v-1412l-12 -11h-354q-108 0 -208 34v-6q0 -28 -11 -28h-309q-272 0 -383 264q-28 75 -28 152z" />
<glyph unicode="x" horiz-adv-x="1108" d="M0 6l320 707l-309 691l-5 28h342q36 -56 152 -314h5q107 260 146 314h337l12 -11l-321 -708l321 -707l-6 -6h-343q-30 32 -146 309h-11q-120 -284 -146 -309h-337l-5 6h-6z" />
<glyph unicode="y" horiz-adv-x="990" d="M0 994v427l11 11h259l11 -11v-382q0 -133 129 -180l34 -5q157 40 157 157v410l11 11h258l12 -11v-433q0 -268 -287 -387v-590l-11 -11h-292l-11 11v595q-281 118 -281 388z" />
<glyph unicode="z" horiz-adv-x="969" d="M0 11v297l481 800v11h-470l-11 11v291l11 11h839l11 -11v-291q-26 -62 -335 -576q-126 -200 -134 -235h458l11 -11v-297l-11 -11h-162l-682 6z" />
<glyph unicode="&#xad;" horiz-adv-x="670" d="M116 437v83q0 29 41 29h356q41 0 41 -29v-83q0 -28 -40 -28h-358q-40 0 -40 28z" />
<glyph unicode="&#xc0;" horiz-adv-x="926" d="M0 11v1042q0 278 297 370l112 11q292 0 392 -263q17 -71 17 -124v-1036l-11 -11h-286l-11 11v465h-208v-465l-11 -11h-280zM174 1684v4h223q12 -9 31 -36l16 -11l48 -59l90 -104l-2 -1h-224q-11 5 -42 45h-5l-48 60zM302 790h208v218q0 78 -101 90q-107 0 -107 -123v-185 z" />
<glyph unicode="&#xc1;" horiz-adv-x="926" d="M0 11v1042q0 278 297 370l112 11q292 0 392 -263q17 -71 17 -124v-1036l-11 -11h-286l-11 11v465h-208v-465l-11 -11h-280zM302 790h208v218q0 78 -101 90q-107 0 -107 -123v-185zM304 1478l91 104l48 59l16 11q18 27 30 36h223v-4l-87 -102l-48 -60h-4q-32 -40 -42 -45 h-224z" />
<glyph unicode="&#xc7;" horiz-adv-x="962" d="M0 389q12 771 38 771q122 274 378 274h16q282 0 389 -307q16 -63 16 -229l-5 -6h-274q-16 0 -16 115v17q-31 103 -115 103q-100 0 -120 -125l-11 -548q0 -97 125 -131q114 0 132 137v93l11 11h273q17 -6 17 -33v-88q0 -326 -334 -432l-74 -11v-170h-148v170 q-119 0 -260 246q-38 98 -38 143z" />
<glyph unicode="&#xc8;" horiz-adv-x="842" d="M0 390v615q0 343 345 424l102 5h276l11 -11v-294l-11 -11h-322q-85 -11 -85 -84v-119l-5 -39l5 -7h418v-316h-423v-129q0 -113 118 -113h294l11 -11v-289l-11 -11h-317q-283 0 -383 282q-23 67 -23 108zM234 1684v4h223q12 -9 31 -36l16 -11l48 -59l90 -104l-2 -1h-224 q-11 5 -42 45h-5l-48 60z" />
<glyph unicode="&#xc9;" horiz-adv-x="842" d="M0 390v615q0 343 345 424l102 5h276l11 -11v-294l-11 -11h-322q-85 -11 -85 -84v-119l-5 -39l5 -7h418v-316h-423v-129q0 -113 118 -113h294l11 -11v-289l-11 -11h-317q-283 0 -383 282q-23 67 -23 108zM304 1478l91 104l48 59l16 11q18 27 30 36h223v-4l-87 -102 l-48 -60h-4q-32 -40 -42 -45h-224z" />
<glyph unicode="&#xd6;" horiz-adv-x="961" d="M0 394l5 327l6 22l-6 6l6 22q0 409 60 448q122 213 355 213q244 0 372 -240q44 -73 44 -372l11 -432q0 -111 -121 -262q-145 -126 -289 -126h-17q-283 0 -404 290q-11 15 -22 104zM85 1625q0 15 16 31l82 84q15 14 29 14q13 0 31 -16l80 -86q12 -16 12 -29q0 -15 -14 -31 l-80 -88q-20 -20 -29 -20q-16 0 -29 14l-88 101q-10 13 -10 26zM295 454q27 -132 131 -132h6q120 29 120 121q0 628 -27 628q-40 47 -99 55q-85 0 -120 -109v-6zM503 1629q0 15 16 31l82 84q15 14 29 14q13 0 31 -16l80 -86q12 -16 12 -29q0 -15 -14 -31l-80 -88 q-20 -20 -29 -20q-16 0 -29 14l-88 101q-10 13 -10 26z" />
<glyph unicode="&#xdc;" horiz-adv-x="915" d="M0 337v1084l11 11h277l11 -11v-995q0 -88 105 -100q89 0 99 105v990l11 11h282l11 -11v-968q0 -320 -193 -403q-82 -50 -194 -50h-16q-291 0 -387 243zM55 1625q0 15 16 31l82 84q15 14 29 14q13 0 31 -16l80 -86q12 -16 12 -29q0 -15 -14 -31l-80 -88q-20 -20 -29 -20 q-16 0 -29 14l-88 101q-10 13 -10 26zM503 1629q0 15 16 31l82 84q15 14 29 14q13 0 31 -16l80 -86q12 -16 12 -29q0 -15 -14 -31l-80 -88q-20 -20 -29 -20q-16 0 -29 14l-88 101q-10 13 -10 26z" />
<glyph unicode="&#xe0;" horiz-adv-x="926" d="M0 11v1042q0 278 297 370l112 11q292 0 392 -263q17 -71 17 -124v-1036l-11 -11h-286l-11 11v465h-208v-465l-11 -11h-280zM174 1684v4h223q12 -9 31 -36l16 -11l48 -59l90 -104l-2 -1h-224q-11 5 -42 45h-5l-48 60zM302 790h208v218q0 78 -101 90q-107 0 -107 -123v-185 z" />
<glyph unicode="&#xe1;" horiz-adv-x="926" d="M0 11v1042q0 278 297 370l112 11q292 0 392 -263q17 -71 17 -124v-1036l-11 -11h-286l-11 11v465h-208v-465l-11 -11h-280zM302 790h208v218q0 78 -101 90q-107 0 -107 -123v-185zM304 1478l91 104l48 59l16 11q18 27 30 36h223v-4l-87 -102l-48 -60h-4q-32 -40 -42 -45 h-224z" />
<glyph unicode="&#xe7;" horiz-adv-x="962" d="M0 389q12 771 38 771q122 274 378 274h16q282 0 389 -307q16 -63 16 -229l-5 -6h-274q-16 0 -16 115v17q-31 103 -115 103q-100 0 -120 -125l-11 -548q0 -97 125 -131q114 0 132 137v93l11 11h273q17 -6 17 -33v-88q0 -326 -334 -432l-74 -11v-170h-148v170 q-119 0 -260 246q-38 98 -38 143z" />
<glyph unicode="&#xe8;" horiz-adv-x="842" d="M0 390v615q0 343 345 424l102 5h276l11 -11v-294l-11 -11h-322q-85 -11 -85 -84v-119l-5 -39l5 -7h418v-316h-423v-129q0 -113 118 -113h294l11 -11v-289l-11 -11h-317q-283 0 -383 282q-23 67 -23 108zM234 1684v4h223q12 -9 31 -36l16 -11l48 -59l90 -104l-2 -1h-224 q-11 5 -42 45h-5l-48 60z" />
<glyph unicode="&#xe9;" horiz-adv-x="842" d="M0 390v615q0 343 345 424l102 5h276l11 -11v-294l-11 -11h-322q-85 -11 -85 -84v-119l-5 -39l5 -7h418v-316h-423v-129q0 -113 118 -113h294l11 -11v-289l-11 -11h-317q-283 0 -383 282q-23 67 -23 108zM304 1478l91 104l48 59l16 11q18 27 30 36h223v-4l-87 -102 l-48 -60h-4q-32 -40 -42 -45h-224z" />
<glyph unicode="&#xf6;" horiz-adv-x="961" d="M0 394l5 327l6 22l-6 6l6 22q0 409 60 448q122 213 355 213q244 0 372 -240q44 -73 44 -372l11 -432q0 -111 -121 -262q-145 -126 -289 -126h-17q-283 0 -404 290q-11 15 -22 104zM85 1625q0 15 16 31l82 84q15 14 29 14q13 0 31 -16l80 -86q12 -16 12 -29q0 -15 -14 -31 l-80 -88q-20 -20 -29 -20q-16 0 -29 14l-88 101q-10 13 -10 26zM295 454q27 -132 131 -132h6q120 29 120 121q0 628 -27 628q-40 47 -99 55q-85 0 -120 -109v-6zM503 1629q0 15 16 31l82 84q15 14 29 14q13 0 31 -16l80 -86q12 -16 12 -29q0 -15 -14 -31l-80 -88 q-20 -20 -29 -20q-16 0 -29 14l-88 101q-10 13 -10 26z" />
<glyph unicode="&#xfc;" horiz-adv-x="915" d="M0 337v1084l11 11h277l11 -11v-995q0 -88 105 -100q89 0 99 105v990l11 11h282l11 -11v-968q0 -320 -193 -403q-82 -50 -194 -50h-16q-291 0 -387 243zM55 1625q0 15 16 31l82 84q15 14 29 14q13 0 31 -16l80 -86q12 -16 12 -29q0 -15 -14 -31l-80 -88q-20 -20 -29 -20 q-16 0 -29 14l-88 101q-10 13 -10 26zM503 1629q0 15 16 31l82 84q15 14 29 14q13 0 31 -16l80 -86q12 -16 12 -29q0 -15 -14 -31l-80 -88q-20 -20 -29 -20q-16 0 -29 14l-88 101q-10 13 -10 26z" />
<glyph unicode="&#x2000;" horiz-adv-x="879" />
<glyph unicode="&#x2001;" horiz-adv-x="1758" />
<glyph unicode="&#x2002;" horiz-adv-x="879" />
<glyph unicode="&#x2003;" horiz-adv-x="1758" />
<glyph unicode="&#x2004;" horiz-adv-x="586" />
<glyph unicode="&#x2005;" horiz-adv-x="439" />
<glyph unicode="&#x2006;" horiz-adv-x="293" />
<glyph unicode="&#x2007;" horiz-adv-x="293" />
<glyph unicode="&#x2008;" horiz-adv-x="219" />
<glyph unicode="&#x2009;" horiz-adv-x="351" />
<glyph unicode="&#x200a;" horiz-adv-x="97" />
<glyph unicode="&#x2010;" horiz-adv-x="670" d="M116 437v83q0 29 41 29h356q41 0 41 -29v-83q0 -28 -40 -28h-358q-40 0 -40 28z" />
<glyph unicode="&#x2011;" horiz-adv-x="670" d="M116 437v83q0 29 41 29h356q41 0 41 -29v-83q0 -28 -40 -28h-358q-40 0 -40 28z" />
<glyph unicode="&#x2012;" horiz-adv-x="670" d="M116 437v83q0 29 41 29h356q41 0 41 -29v-83q0 -28 -40 -28h-358q-40 0 -40 28z" />
<glyph unicode="&#x2013;" horiz-adv-x="1256" d="M116 437v83q0 29 96 29h832q96 0 96 -29v-83q0 -28 -94 -28h-836q-94 0 -94 28z" />
<glyph unicode="&#x2014;" horiz-adv-x="2280" d="M116 437v83q0 29 192 29h1664q192 0 192 -29v-83q0 -28 -187 -28h-1674q-187 0 -187 28z" />
<glyph unicode="&#x202f;" horiz-adv-x="351" />
<glyph unicode="&#x205f;" horiz-adv-x="439" />
<glyph unicode="&#x25fc;" horiz-adv-x="1430" d="M0 0v1430h1430v-1430h-1430z" />
</font>
</defs>
</svg>
